<?xml version="1.0" encoding="UTF-8"?>
<!DOCTYPE svg PUBLIC "-//W3C//DTD SVG 1.1//EN" "http://www.w3.org/Graphics/SVG/1.1/DTD/svg11.dtd">
<svg xmlns="http://www.w3.org/2000/svg" version="1.1" width="1500px" height="1500px" style="shape-rendering:geometricPrecision; text-rendering:geometricPrecision; image-rendering:optimizeQuality; fill-rule:evenodd; clip-rule:evenodd" xmlns:xlink="http://www.w3.org/1999/xlink">
<g><path style="opacity:0.946" fill="#00adef" d="M 475.5,280.5 C 479.167,280.5 482.833,280.5 486.5,280.5C 486.5,304.833 486.5,329.167 486.5,353.5C 482.833,353.5 479.167,353.5 475.5,353.5C 475.5,329.167 475.5,304.833 475.5,280.5 Z"/></g>
<g><path style="opacity:0.932" fill="#00adef" d="M 524.5,280.5 C 527.85,280.335 531.183,280.502 534.5,281C 548.333,298.167 562.167,315.333 576,332.5C 576.5,315.17 576.667,297.837 576.5,280.5C 580.167,280.5 583.833,280.5 587.5,280.5C 587.5,304.833 587.5,329.167 587.5,353.5C 583.894,353.789 580.394,353.456 577,352.5C 563.573,335.317 549.907,318.317 536,301.5C 535.5,318.83 535.333,336.163 535.5,353.5C 531.833,353.5 528.167,353.5 524.5,353.5C 524.5,329.167 524.5,304.833 524.5,280.5 Z"/></g>
<g><path style="opacity:0.922" fill="#00adef" d="M 625.5,280.5 C 642.833,280.5 660.167,280.5 677.5,280.5C 677.5,283.833 677.5,287.167 677.5,290.5C 663.833,290.5 650.167,290.5 636.5,290.5C 636.5,298.5 636.5,306.5 636.5,314.5C 648.833,314.5 661.167,314.5 673.5,314.5C 673.5,317.833 673.5,321.167 673.5,324.5C 661.167,324.5 648.833,324.5 636.5,324.5C 636.5,334.167 636.5,343.833 636.5,353.5C 632.833,353.5 629.167,353.5 625.5,353.5C 625.5,329.167 625.5,304.833 625.5,280.5 Z"/></g>
<g><path style="opacity:0.866" fill="#00adef" d="M 707.5,280.5 C 711.5,280.5 715.5,280.5 719.5,280.5C 719.5,304.833 719.5,329.167 719.5,353.5C 715.5,353.5 711.5,353.5 707.5,353.5C 707.5,329.167 707.5,304.833 707.5,280.5 Z"/></g>
<g><path style="opacity:0.905" fill="#00adef" d="M 756.5,280.5 C 762.476,279.224 767.309,280.89 771,285.5C 783.667,301.5 796.333,317.5 809,333.5C 809.5,315.836 809.667,298.17 809.5,280.5C 813.167,280.5 816.833,280.5 820.5,280.5C 820.5,304.833 820.5,329.167 820.5,353.5C 817.15,353.665 813.817,353.498 810.5,353C 796.667,335.833 782.833,318.667 769,301.5C 768.5,318.83 768.333,336.163 768.5,353.5C 764.5,353.5 760.5,353.5 756.5,353.5C 756.5,329.167 756.5,304.833 756.5,280.5 Z"/></g>
<g><path style="opacity:0.866" fill="#00adef" d="M 857.5,280.5 C 861.5,280.5 865.5,280.5 869.5,280.5C 869.5,304.833 869.5,329.167 869.5,353.5C 865.5,353.5 861.5,353.5 857.5,353.5C 857.5,329.167 857.5,304.833 857.5,280.5 Z"/></g>
<g><path style="opacity:0.925" fill="#00adef" d="M 896.5,280.5 C 916.833,280.5 937.167,280.5 957.5,280.5C 957.5,283.833 957.5,287.167 957.5,290.5C 949.167,290.5 940.833,290.5 932.5,290.5C 932.5,311.5 932.5,332.5 932.5,353.5C 928.833,353.5 925.167,353.5 921.5,353.5C 921.5,332.5 921.5,311.5 921.5,290.5C 913.167,290.5 904.833,290.5 896.5,290.5C 896.5,287.167 896.5,283.833 896.5,280.5 Z"/></g>
<g><path style="opacity:0.914" fill="#00adef" d="M 984.5,280.5 C 1001.83,280.5 1019.17,280.5 1036.5,280.5C 1036.5,283.833 1036.5,287.167 1036.5,290.5C 1022.83,290.5 1009.17,290.5 995.5,290.5C 995.5,297.5 995.5,304.5 995.5,311.5C 1007.83,311.5 1020.17,311.5 1032.5,311.5C 1032.5,314.833 1032.5,318.167 1032.5,321.5C 1020.17,321.5 1007.83,321.5 995.5,321.5C 995.5,328.833 995.5,336.167 995.5,343.5C 1009.83,343.5 1024.17,343.5 1038.5,343.5C 1038.5,346.833 1038.5,350.167 1038.5,353.5C 1020.5,353.5 1002.5,353.5 984.5,353.5C 984.5,329.167 984.5,304.833 984.5,280.5 Z"/></g>
<g><path style="opacity:0.915" fill="#d8d9d8" d="M 747.5,417.5 C 782.118,429.305 816.452,441.972 850.5,455.5C 857.39,462.67 857.056,469.503 849.5,476C 816.258,488.136 782.924,499.969 749.5,511.5C 717.599,501.126 686.099,489.792 655,477.5C 653.31,472.608 654.977,469.608 660,468.5C 689.725,479.464 719.558,490.131 749.5,500.5C 781.425,489.415 813.092,477.748 844.5,465.5C 812.863,452.769 781.03,440.436 749,428.5C 727.833,436.667 706.667,444.833 685.5,453C 703.47,461.551 722.136,463.551 741.5,459C 746.875,457.432 751.875,455.099 756.5,452C 763.642,449.978 766.309,452.478 764.5,459.5C 749.38,469.613 732.713,473.78 714.5,472C 707.731,471.18 701.065,469.846 694.5,468C 683.1,463.465 671.433,459.799 659.5,457C 644.204,453.708 629.538,455.375 615.5,462C 611.46,464.357 608.627,467.524 607,471.5C 608.972,472.305 610.472,473.639 611.5,475.5C 605.624,484.752 599.624,493.919 593.5,503C 584.984,507.359 577.817,505.859 572,498.5C 570,494.167 570,489.833 572,485.5C 577.016,476.787 582.516,468.454 588.5,460.5C 591.086,462.043 593.586,463.709 596,465.5C 605.603,453.611 618.103,446.777 633.5,445C 645.614,444.35 657.614,445.017 669.5,447C 695.649,437.233 721.649,427.4 747.5,417.5 Z"/></g>
<g><path style="opacity:0.983" fill="#d8d9d8" d="M 702.5,506.5 C 718.152,511.41 733.652,516.743 749,522.5C 764.186,517.105 779.353,511.939 794.5,507C 804.406,537.648 818.906,565.815 838,591.5C 846.598,603.268 855.765,614.601 865.5,625.5C 846.588,648.97 830.421,674.303 817,701.5C 805.273,727.287 793.273,752.954 781,778.5C 771.215,801.855 762.215,825.521 754,849.5C 753.94,778.84 753.94,708.174 754,637.5C 761.368,632.909 763.368,626.576 760,618.5C 751.645,608.881 743.645,609.214 736,619.5C 734.081,626.48 735.915,632.147 741.5,636.5C 742.57,707.832 743.07,779.166 743,850.5C 734.923,827.267 726.256,804.267 717,781.5C 703.333,752.167 689.667,722.833 676,693.5C 662.943,669.206 647.776,646.373 630.5,625C 663.017,590.822 687.017,551.322 702.5,506.5 Z"/></g>
<g><path style="opacity:0.955" fill="#c0ff71" d="M 480.5,583.5 C 520.061,588.297 556.728,601.13 590.5,622C 602.309,630.14 611.642,640.473 618.5,653C 604.028,642.924 588.362,634.591 571.5,628C 550.635,621.663 529.302,619.163 507.5,620.5C 501.134,678.46 495.134,736.46 489.5,794.5C 550.352,793.712 607.018,808.545 659.5,839C 674.51,849.335 688.344,861.168 701,874.5C 701.667,875.167 701.667,875.833 701,876.5C 635.135,831.158 562.302,812.658 482.5,821C 474.788,821.952 467.121,823.119 459.5,824.5C 466.079,744.129 473.079,663.796 480.5,583.5 Z"/></g>
<g><path style="opacity:0.955" fill="#00adef" d="M 797.5,874.5 C 809.814,859.686 824.148,847.186 840.5,837C 883.214,812.542 929.214,798.542 978.5,795C 988.833,794.412 999.166,793.912 1009.5,793.5C 1003.47,735.872 997.801,678.205 992.5,620.5C 951.479,616.961 914.645,627.628 882,652.5C 882.463,649.23 883.796,646.23 886,643.5C 900.137,626.172 917.637,613.338 938.5,605C 964.545,594.239 991.545,587.072 1019.5,583.5C 1025.89,663.857 1032.56,744.19 1039.5,824.5C 952.099,809.313 871.432,825.979 797.5,874.5 Z"/></g>
<g><path style="opacity:0.958" fill="#7dd956" d="M 416.5,635.5 C 434.465,637.76 452.132,641.426 469.5,646.5C 469.164,655.198 468.497,663.865 467.5,672.5C 459.552,672.093 451.552,672.093 443.5,672.5C 437.171,730.125 431.171,787.791 425.5,845.5C 485.299,840.249 544.633,843.416 603.5,855C 638.985,862.263 671.651,875.929 701.5,896C 705.339,899.009 709.006,902.176 712.5,905.5C 650.827,876.827 585.494,863.161 516.5,864.5C 475.859,864.181 435.692,868.181 396,876.5C 402.08,796.12 408.913,715.786 416.5,635.5 Z"/></g>
<g><path style="opacity:0.958" fill="#3871c1" d="M 1077.5,635.5 C 1079.47,635.261 1081.3,635.594 1083,636.5C 1089.62,716.534 1096.46,796.534 1103.5,876.5C 1036.19,863.19 968.523,861.023 900.5,870C 860.032,875.892 821.699,887.392 785.5,904.5C 809.814,884.081 837.481,869.581 868.5,861C 934.226,844.234 1000.89,839.067 1068.5,845.5C 1070.17,845.167 1071.83,844.833 1073.5,844.5C 1067.41,787.884 1061.58,731.217 1056,674.5C 1050.27,672.748 1044.27,671.748 1038,671.5C 1035.86,672.077 1033.7,672.41 1031.5,672.5C 1030.97,665.326 1030.3,658.159 1029.5,651C 1029.56,649.564 1029.89,648.231 1030.5,647C 1046.1,642.348 1061.77,638.515 1077.5,635.5 Z"/></g>
<g><path style="opacity:0.961" fill="#7dd956" d="M 720.5,930.5 C 646.604,912.036 571.604,905.203 495.5,910C 440.028,913.142 385.028,919.976 330.5,930.5C 337.981,850.546 344.981,770.546 351.5,690.5C 369.766,692.887 387.766,696.553 405.5,701.5C 404.713,709.822 404.046,718.156 403.5,726.5C 395.178,727.055 386.844,727.388 378.5,727.5C 373.026,784.904 367.026,842.237 360.5,899.5C 361,899.833 361.5,900.167 362,900.5C 445.381,883.48 529.214,880.647 613.5,892C 649.001,897.945 682.667,909.278 714.5,926C 716.747,927.277 718.747,928.777 720.5,930.5 Z"/></g>
<g><path style="opacity:0.96" fill="#2e3092" d="M 777.5,929.5 C 784.068,924.799 791.068,920.632 798.5,917C 837.116,900.263 877.449,890.263 919.5,887C 992.738,881.394 1065.24,886.227 1137,901.5C 1131.7,843.82 1125.87,786.153 1119.5,728.5C 1111.56,727.531 1103.56,727.198 1095.5,727.5C 1095.05,720.15 1094.39,712.817 1093.5,705.5C 1093.83,704.5 1094.17,703.5 1094.5,702.5C 1111.82,696.969 1129.49,692.969 1147.5,690.5C 1153.78,770.867 1160.45,851.2 1167.5,931.5C 1081.39,913.463 994.39,906.296 906.5,910C 862.771,911.89 819.771,918.39 777.5,929.5 Z"/></g>
<g><path style="opacity:0.043" fill="#00adef" d="M 797.5,874.5 C 796.833,875.167 796.833,875.167 797.5,874.5 Z"/></g>
<g><path style="opacity:0.067" fill="#2e3092" d="M 777.5,929.5 C 777.103,930.525 776.437,930.692 775.5,930C 776.094,929.536 776.761,929.369 777.5,929.5 Z"/></g>
<g><path style="opacity:0.078" fill="#7dd956" d="M 720.5,930.5 C 721.833,931.167 721.833,931.167 720.5,930.5 Z"/></g>
<g><path style="opacity:0.914" fill="#00adef" d="M 796.5,961.5 C 800.5,961.5 804.5,961.5 808.5,961.5C 808.5,972.5 808.5,983.5 808.5,994.5C 822.833,994.5 837.167,994.5 851.5,994.5C 851.5,983.5 851.5,972.5 851.5,961.5C 855.5,961.5 859.5,961.5 863.5,961.5C 863.5,987.167 863.5,1012.83 863.5,1038.5C 859.5,1038.5 855.5,1038.5 851.5,1038.5C 851.5,1027.17 851.5,1015.83 851.5,1004.5C 837.167,1004.5 822.833,1004.5 808.5,1004.5C 808.5,1015.83 808.5,1027.17 808.5,1038.5C 804.5,1038.5 800.5,1038.5 796.5,1038.5C 796.5,1012.83 796.5,987.167 796.5,961.5 Z"/></g>
<g><path style="opacity:0.912" fill="#00adef" d="M 902.5,961.5 C 920.833,961.5 939.167,961.5 957.5,961.5C 957.5,965.167 957.5,968.833 957.5,972.5C 943.167,972.5 928.833,972.5 914.5,972.5C 914.5,979.833 914.5,987.167 914.5,994.5C 927.167,994.5 939.833,994.5 952.5,994.5C 952.5,997.833 952.5,1001.17 952.5,1004.5C 939.833,1004.5 927.167,1004.5 914.5,1004.5C 914.5,1012.5 914.5,1020.5 914.5,1028.5C 929.167,1028.5 943.833,1028.5 958.5,1028.5C 958.5,1031.83 958.5,1035.17 958.5,1038.5C 939.833,1038.5 921.167,1038.5 902.5,1038.5C 902.5,1012.83 902.5,987.167 902.5,961.5 Z"/></g>
<g><path style="opacity:0.92" fill="#00adef" d="M 992.5,961.5 C 996.5,961.5 1000.5,961.5 1004.5,961.5C 1004.5,983.833 1004.5,1006.17 1004.5,1028.5C 1018.17,1028.5 1031.83,1028.5 1045.5,1028.5C 1045.5,1031.83 1045.5,1035.17 1045.5,1038.5C 1027.83,1038.5 1010.17,1038.5 992.5,1038.5C 992.5,1012.83 992.5,987.167 992.5,961.5 Z"/></g>
<g><path style="opacity:0.903" fill="#00adef" d="M 1074.5,961.5 C 1086.5,961.333 1098.5,961.5 1110.5,962C 1133.75,965.651 1141.92,978.818 1135,1001.5C 1130.47,1008.85 1123.97,1013.35 1115.5,1015C 1105.84,1015.5 1096.17,1015.67 1086.5,1015.5C 1086.5,1023.17 1086.5,1030.83 1086.5,1038.5C 1082.5,1038.5 1078.5,1038.5 1074.5,1038.5C 1074.5,1012.83 1074.5,987.167 1074.5,961.5 Z M 1086.5,972.5 C 1096.25,972.08 1105.91,972.58 1115.5,974C 1124.81,978.931 1127.65,986.431 1124,996.5C 1120.81,1001.34 1116.31,1004.18 1110.5,1005C 1102.51,1005.5 1094.51,1005.67 1086.5,1005.5C 1086.5,994.5 1086.5,983.5 1086.5,972.5 Z"/></g>
<g><path style="opacity:0.862" fill="#00adef" d="M 371.5,979.5 C 392.447,977.307 404.447,986.474 407.5,1007C 405.457,1024.21 395.79,1033.38 378.5,1034.5C 356.194,1032.02 347.027,1019.68 351,997.5C 354.764,987.887 361.597,981.887 371.5,979.5 Z M 372.5,987.5 C 385.409,985.199 393.909,990.199 398,1002.5C 398.499,1020 389.999,1027.83 372.5,1026C 359.057,1020.02 355.224,1010.18 361,996.5C 364.045,992.406 367.878,989.406 372.5,987.5 Z"/></g>
<g><path style="opacity:0.88" fill="#00adef" d="M 430.5,979.5 C 433.119,979.232 435.619,979.565 438,980.5C 448,993.167 458,1005.83 468,1018.5C 468.5,1005.5 468.667,992.504 468.5,979.5C 471.167,979.5 473.833,979.5 476.5,979.5C 476.5,997.5 476.5,1015.5 476.5,1033.5C 473.813,1033.66 471.146,1033.5 468.5,1033C 459.046,1020.54 449.212,1008.38 439,996.5C 438.5,1008.83 438.333,1021.16 438.5,1033.5C 435.5,1033.5 432.5,1033.5 429.5,1033.5C 429.181,1015.42 429.514,997.423 430.5,979.5 Z"/></g>
<g><path style="opacity:0.833" fill="#00adef" d="M 528.5,979.5 C 543.5,979.5 558.5,979.5 573.5,979.5C 573.5,982.167 573.5,984.833 573.5,987.5C 567.5,987.5 561.5,987.5 555.5,987.5C 555.5,1002.83 555.5,1018.17 555.5,1033.5C 552.5,1033.5 549.5,1033.5 546.5,1033.5C 546.5,1018.17 546.5,1002.83 546.5,987.5C 540.5,987.5 534.5,987.5 528.5,987.5C 528.5,984.833 528.5,982.167 528.5,979.5 Z"/></g>
<g><path style="opacity:0.836" fill="#00adef" d="M 593.5,979.5 C 596.167,979.5 598.833,979.5 601.5,979.5C 601.5,997.5 601.5,1015.5 601.5,1033.5C 598.5,1033.5 595.5,1033.5 592.5,1033.5C 592.181,1015.42 592.514,997.423 593.5,979.5 Z"/></g>
<g><path style="opacity:0.846" fill="#00adef" d="M 628.5,979.5 C 631.685,979.02 634.519,979.686 637,981.5C 643.582,992.999 650.415,1004.33 657.5,1015.5C 664.863,1004.12 671.863,992.451 678.5,980.5C 681.086,979.52 683.753,979.187 686.5,979.5C 686.5,997.5 686.5,1015.5 686.5,1033.5C 683.833,1033.5 681.167,1033.5 678.5,1033.5C 678.693,1021.8 678.193,1010.14 677,998.5C 671.248,1007.67 665.748,1017 660.5,1026.5C 658.5,1027.83 656.5,1027.83 654.5,1026.5C 648.801,1017.3 643.301,1007.96 638,998.5C 637.5,1010.16 637.333,1021.83 637.5,1033.5C 634.5,1033.5 631.5,1033.5 628.5,1033.5C 628.5,1015.5 628.5,997.5 628.5,979.5 Z"/></g>
<g><path style="opacity:0.855" fill="#00adef" d="M 713.5,979.5 C 726.171,979.333 738.838,979.5 751.5,980C 752.435,982.381 752.768,984.881 752.5,987.5C 742.5,987.5 732.5,987.5 722.5,987.5C 722.5,992.5 722.5,997.5 722.5,1002.5C 731.167,1002.5 739.833,1002.5 748.5,1002.5C 748.5,1005.17 748.5,1007.83 748.5,1010.5C 739.833,1010.5 731.167,1010.5 722.5,1010.5C 722.5,1015.83 722.5,1021.17 722.5,1026.5C 732.833,1026.5 743.167,1026.5 753.5,1026.5C 753.5,1028.83 753.5,1031.17 753.5,1033.5C 740.167,1033.5 726.833,1033.5 713.5,1033.5C 713.5,1015.5 713.5,997.5 713.5,979.5 Z"/></g>
</svg>
